<svg fill="#05386B" xmlns="http://www.w3.org/2000/svg" xmlns:xlink="http://www.w3.org/1999/xlink" version="1.1" x="0px" y="0px" viewBox="0 0 100 100" enable-background="new 0 0 100 100" xml:space="preserve"><path fill="#05386B" stroke="#05386B" stroke-width="0.1016" stroke-miterlimit="10" d="M97.528,48.108  c-8.916-8.417-37.49-39.759-48.52-39.849C33.998,8.136,11.392,42.938,2.094,54.088c4.742,1.434,9.985,4.287,14.839,4.485l1.49,0.369  c-2.024,12.182-5.798,32.177,3.607,34.996c0.798,0.583,1.697,0.978,2.706,1.147c7.831,1.316,15.305,1.889,22.738,1.914  c0.085-1.302,0.293-2.968,0.611-4.815c0.447-2.593,1.109-5.538,1.95-8.32c0.836-2.782,1.853-5.393,2.998-7.318  c1.146-1.927,2.42-3.164,3.786-3.19l0.068-0.004h0.066h0.073l0.068-0.005c1.369-0.024,2.692,1.156,3.917,3.03  c1.224,1.879,2.344,4.447,3.294,7.19c0.954,2.744,1.742,5.663,2.295,8.235c0.33,1.528,0.576,2.934,0.729,4.11  c2.891-0.302,5.814-0.655,8.792-1.055c11.965-1.605,5.978-26.895,4.25-38.695C86.486,54.454,92.274,51.896,97.528,48.108z"></path></svg>